<svg width="88" height="61" viewBox="0 0 88 61" fill="none" xmlns="http://www.w3.org/2000/svg">
<path d="M1 11.5001L43.3316 1.70544L87 11.5001M2.3871 60.0012H85.6129" stroke="#005296" stroke-width="2"/>
<path d="M8.46349 22.5806C8.46349 21.2583 7.94599 20.3611 7.13738 20.3611C6.36112 20.3611 5.84362 21.2583 5.84362 22.5806V47.4194C5.84362 48.7417 6.36112 49.6389 7.13738 49.6389C7.94599 49.6389 8.46349 48.7417 8.46349 47.4194V22.5806ZM10.3071 46.9C10.3071 49.9694 9.04569 52 7.13738 52C5.26142 52 4 49.9694 4 46.9V23.1C4 20.0306 5.26142 18 7.13738 18C9.04569 18 10.3071 20.0306 10.3071 23.1V46.9Z" fill="#005296"/>
<path d="M21.0583 51.5278H16.2067V18.4722H18.0503V49.025H21.0583V51.5278Z" fill="#005296"/>
<path d="M28.7368 37.5028L25.9229 18.6611L25.8905 18.4722H27.8312L27.8635 18.5667V18.7083L29.6748 33.7722L31.3567 18.7083C31.3567 18.7083 31.3567 18.6611 31.3567 18.6139L31.389 18.4722H33.3297V18.5667C33.2973 18.6611 33.2973 18.7083 33.2973 18.7083L30.5804 37.55V51.5278H28.7368V37.5028Z" fill="#005296"/>
<path d="M43.5957 38.7778L45.5687 18.4722H48.1239V51.5278H46.2803V24.7056L44.4043 44.7278L43.7898 51.5278H43.4016L42.7548 44.7278L40.9111 24.7528V51.5278H39.0675V18.4722H41.5904L43.5957 38.7778Z" fill="#005296"/>
<path d="M54.0234 51.5278V18.4722H57.4519C59.3602 18.4722 60.654 20.4556 60.654 23.4306V33.0639C60.654 36.3694 59.3602 38.5889 57.4519 38.5889H55.8671V51.5278H54.0234ZM55.8671 36.2278H57.4519C58.2605 36.2278 58.8104 34.9528 58.8104 33.0639V23.4778C58.8104 21.9194 58.2605 20.8333 57.4519 20.8333H55.8671V36.2278Z" fill="#005296"/>
<path d="M70.4995 22.5806C70.4995 21.2583 69.982 20.3611 69.1734 20.3611C68.3972 20.3611 67.8797 21.2583 67.8797 22.5806V47.4194C67.8797 48.7417 68.3972 49.6389 69.1734 49.6389C69.982 49.6389 70.4995 48.7417 70.4995 47.4194V22.5806ZM72.3432 46.9C72.3432 49.9694 71.0817 52 69.1734 52C67.2975 52 66.0361 49.9694 66.0361 46.9V23.1C66.0361 20.0306 67.2975 18 69.1734 18C71.0817 18 72.3432 20.0306 72.3432 23.1V46.9Z" fill="#005296"/>
<path d="M77.7252 45.2472H79.5689V47.325C79.5689 48.6944 80.0864 49.6389 80.8303 49.6389C81.6065 49.6389 82.124 48.4583 82.124 46.6639C82.124 43.2639 81.4125 39.1556 80.0217 35.5667C78.5338 31.7889 77.7576 27.7278 77.7576 23.7139C77.7576 20.2667 79.019 18 80.895 18C82.3504 18 83.4501 19.1806 83.8383 21.0222C83.9353 21.5417 84 22.1083 84 22.675V24.4694H82.1564V22.675C82.1564 21.3056 81.6389 20.3611 80.895 20.3611C80.0864 20.3611 79.5689 21.5417 79.5689 23.2889C79.5689 26.7833 80.3128 30.4194 81.7036 34.0556C83.1914 37.8333 83.9677 42.3667 83.9677 46.1444C83.9677 49.6861 82.7062 52 80.8303 52C79.3748 52 78.2751 50.8194 77.887 48.9778C77.7899 48.4583 77.7252 47.8917 77.7252 47.325V45.2472Z" fill="#005296"/>
</svg>
