<svg width="72" height="50" viewBox="0 0 72 50" fill="none" xmlns="http://www.w3.org/2000/svg">
<path d="M1 9.60188L35.456 1.70508L71 9.60188M2.12903 48.7051H69.871" stroke="#C4C6D1" stroke-width="1.5"/>
<path d="M6.62659 18.4773C6.62659 17.3884 6.20611 16.6495 5.54912 16.6495C4.91841 16.6495 4.49794 17.3884 4.49794 18.4773V38.9329C4.49794 40.0217 4.91841 40.7606 5.54912 40.7606C6.20611 40.7606 6.62659 40.0217 6.62659 38.9329V18.4773ZM8.12452 38.5051C8.12452 41.0329 7.09962 42.7051 5.54912 42.7051C4.0249 42.7051 3 41.0329 3 38.5051V18.9051C3 16.3773 4.0249 14.7051 5.54912 14.7051C7.09962 14.7051 8.12452 16.3773 8.12452 18.9051V38.5051Z" fill="#C4C6D1"/>
<path d="M16.8599 42.3162H12.9179V15.094H14.4159V40.2551H16.8599V42.3162Z" fill="#C4C6D1"/>
<path d="M23.0986 30.7662L20.8123 15.2495L20.786 15.094H22.3628L22.3891 15.1717V15.2884L23.8608 27.694L25.2273 15.2884C25.2273 15.2884 25.2273 15.2495 25.2273 15.2106L25.2536 15.094H26.8304V15.1717C26.8041 15.2495 26.8041 15.2884 26.8041 15.2884L24.5966 30.8051V42.3162H23.0986V30.7662Z" fill="#C4C6D1"/>
<path d="M35.1715 31.8162L36.7746 15.094H38.8507V42.3162H37.3527V20.2273L35.8285 36.7162L35.3292 42.3162H35.0138L34.4882 36.7162L32.9903 20.2662V42.3162H31.4924V15.094H33.5422L35.1715 31.8162Z" fill="#C4C6D1"/>
<path d="M43.6441 42.3162V15.094H46.4297C47.9802 15.094 49.0314 16.7273 49.0314 19.1773V27.1106C49.0314 29.8329 47.9802 31.6606 46.4297 31.6606H45.142V42.3162H43.6441ZM45.142 29.7162H46.4297C47.0867 29.7162 47.5334 28.6662 47.5334 27.1106V19.2162C47.5334 17.9329 47.0867 17.0384 46.4297 17.0384H45.142V29.7162Z" fill="#C4C6D1"/>
<path d="M57.0309 18.4773C57.0309 17.3884 56.6104 16.6495 55.9534 16.6495C55.3227 16.6495 54.9022 17.3884 54.9022 18.4773V38.9329C54.9022 40.0217 55.3227 40.7606 55.9534 40.7606C56.6104 40.7606 57.0309 40.0217 57.0309 38.9329V18.4773ZM58.5288 38.5051C58.5288 41.0329 57.5039 42.7051 55.9534 42.7051C54.4292 42.7051 53.4043 41.0329 53.4043 38.5051V18.9051C53.4043 16.3773 54.4292 14.7051 55.9534 14.7051C57.5039 14.7051 58.5288 16.3773 58.5288 18.9051V38.5051Z" fill="#C4C6D1"/>
<path d="M62.9018 37.144H64.3997V38.8551C64.3997 39.9829 64.8202 40.7606 65.4246 40.7606C66.0553 40.7606 66.4758 39.7884 66.4758 38.3106C66.4758 35.5106 65.8976 32.1273 64.7676 29.1717C63.5587 26.0606 62.928 22.7162 62.928 19.4106C62.928 16.5717 63.9529 14.7051 65.4772 14.7051C66.6597 14.7051 67.5532 15.6773 67.8686 17.194C67.9474 17.6217 68 18.0884 68 18.5551V20.0329H66.5021V18.5551C66.5021 17.4273 66.0816 16.6495 65.4772 16.6495C64.8202 16.6495 64.3997 17.6217 64.3997 19.0606C64.3997 21.9384 65.0041 24.9329 66.1341 27.9273C67.343 31.0384 67.9737 34.7717 67.9737 37.8829C67.9737 40.7995 66.9488 42.7051 65.4246 42.7051C64.242 42.7051 63.3485 41.7329 63.0332 40.2162C62.9543 39.7884 62.9018 39.3217 62.9018 38.8551V37.144Z" fill="#C4C6D1"/>
</svg>
