<svg width="21" height="20" viewBox="0 0 21 20" fill="none" xmlns="http://www.w3.org/2000/svg">
<path d="M7.66667 1.66675C7.66667 1.39061 7.44281 1.16675 7.16667 1.16675C6.89052 1.16675 6.66667 1.39061 6.66667 1.66675H7.66667ZM6.66667 5.00008C6.66667 5.27622 6.89052 5.50008 7.16667 5.50008C7.44281 5.50008 7.66667 5.27622 7.66667 5.00008H6.66667ZM14.3333 1.66675C14.3333 1.39061 14.1095 1.16675 13.8333 1.16675C13.5572 1.16675 13.3333 1.39061 13.3333 1.66675H14.3333ZM13.3333 5.00008C13.3333 5.27622 13.5572 5.50008 13.8333 5.50008C14.1095 5.50008 14.3333 5.27622 14.3333 5.00008H13.3333ZM5.5 3.33341V3.83341H15.5V3.33341V2.83341H5.5V3.33341ZM18 5.83342H17.5V15.8334H18H18.5V5.83342H18ZM15.5 18.3334V17.8334H5.5V18.3334V18.8334H15.5V18.3334ZM3 15.8334H3.5V5.83342H3H2.5V15.8334H3ZM5.5 18.3334V17.8334C4.39543 17.8334 3.5 16.938 3.5 15.8334H3H2.5C2.5 17.4903 3.84315 18.8334 5.5 18.8334V18.3334ZM18 15.8334H17.5C17.5 16.938 16.6046 17.8334 15.5 17.8334V18.3334V18.8334C17.1569 18.8334 18.5 17.4903 18.5 15.8334H18ZM15.5 3.33341V3.83341C16.6046 3.83341 17.5 4.72885 17.5 5.83342H18H18.5C18.5 4.17656 17.1569 2.83341 15.5 2.83341V3.33341ZM5.5 3.33341V2.83341C3.84315 2.83341 2.5 4.17656 2.5 5.83342H3H3.5C3.5 4.72885 4.39543 3.83341 5.5 3.83341V3.33341ZM3 8.33342V8.83342H18V8.33342V7.83342H3V8.33342ZM7.16667 1.66675H6.66667V5.00008H7.16667H7.66667V1.66675H7.16667ZM13.8333 1.66675H13.3333V5.00008H13.8333H14.3333V1.66675H13.8333Z" fill="#03050F"/>
</svg>
