<svg width="30" height="30" viewBox="0 0 30 30" fill="none" xmlns="http://www.w3.org/2000/svg">
<circle cx="15" cy="15" r="15" fill="#C4C6D1"/>
<path d="M20.6924 7.17871C22.3751 7.17894 23.751 8.55552 23.751 10.2383V17.623C23.751 19.3001 22.3802 20.6768 20.6973 20.6768H16.4531L15.7305 21.9258L15.0186 23.1572C14.8855 23.3828 14.5618 23.3828 14.4346 23.1572L13.7236 21.9258L13 20.6768H8.80176C7.12467 20.6767 5.74806 19.3059 5.74805 17.623V10.2324C5.74805 8.55532 7.11888 7.17873 8.80176 7.17871H20.6924ZM19.1943 12.5986C18.3443 12.5986 17.6555 13.3095 17.6553 14.1826C17.6553 15.0559 18.3442 15.7676 19.1943 15.7676C19.547 15.7675 19.8706 15.6457 20.125 15.4434V15.8828C20.125 15.8828 20.0325 16.3174 19.3848 16.3174V17.1328C19.3848 17.1328 20.0844 17.2133 20.709 16.5889C20.709 16.5889 20.9977 16.2825 21.0615 15.8779V12.6621H20.125V12.9219C19.8649 12.7197 19.5411 12.5987 19.1943 12.5986ZM8.42871 15.8027H9.35352V15.5078C9.61371 15.7391 9.94336 15.8837 10.3076 15.8838C11.1346 15.8838 11.8057 15.1492 11.8057 14.2412C11.8055 13.3334 11.1403 12.5938 10.3076 12.5938C9.94913 12.5938 9.61371 12.7327 9.35352 12.9697V11.6104H8.42871V15.8027ZM15.5742 12.5928C14.655 12.5929 13.9094 13.3267 13.9092 14.2344C13.9092 15.1422 14.6548 15.8768 15.5742 15.877C16.4937 15.877 17.2402 15.1423 17.2402 14.2344C17.24 13.3266 16.4994 12.5928 15.5742 12.5928ZM11.9082 11.5283V12.3672C11.9082 12.3672 12.336 12.4254 12.417 12.8418V15.8027H13.3711V12.8184C13.3133 12.402 13.0645 12.0898 13.0645 12.0898C12.5209 11.448 11.9082 11.5283 11.9082 11.5283ZM10.123 13.4141C10.5854 13.4142 10.9549 13.7788 10.9551 14.2354C10.9551 14.6921 10.5856 15.0565 10.123 15.0566C9.78184 15.0566 9.4866 14.8545 9.35938 14.5596C9.3189 14.4613 9.29004 14.351 9.29004 14.2354C9.29009 14.1199 9.31322 14.0103 9.35938 13.9121C9.4866 13.6172 9.78184 13.4141 10.123 13.4141ZM15.5742 13.4482C16.0136 13.4482 16.3728 13.8008 16.373 14.2344C16.373 14.6681 16.0195 15.0215 15.5742 15.0215C15.1348 15.0213 14.7764 14.668 14.7764 14.2344C14.7766 13.8009 15.135 13.4484 15.5742 13.4482ZM19.3672 13.3672C19.6967 13.3672 19.9861 13.5525 20.125 13.8184C20.1828 13.9281 20.2118 14.0497 20.2119 14.1768C20.2119 14.304 20.177 14.432 20.125 14.5361C19.9861 14.8078 19.6967 14.9873 19.3672 14.9873C18.8989 14.9871 18.5234 14.6219 18.5234 14.1768C18.5237 13.7318 18.9049 13.3674 19.3672 13.3672Z" fill="#03050F"/>
</svg>
