<svg width="100" height="100" viewBox="0 0 100 100" fill="none" xmlns="http://www.w3.org/2000/svg">
<rect width="100" height="100" rx="8" fill="#ECEDF0"/>
<path d="M52.3606 29.1665L54.8894 33.9007L59.9752 34.9532L56.4523 38.9325L57.0663 44.318L52.3606 42.0425L47.6549 44.318L48.269 38.9325L44.7461 34.9532L49.8318 33.9007L52.3606 29.1665Z" stroke="#03050F" stroke-width="1.5" stroke-miterlimit="10" stroke-linejoin="round"/>
<path d="M32.9846 55.3318L29.8342 58.4822C29.4166 58.8998 29.4166 59.5768 29.8342 59.9944L39.9168 70.077C40.3344 70.4946 41.0114 70.4946 41.429 70.077L44.5794 66.9266C44.997 66.509 44.997 65.8319 44.5794 65.4144L34.4968 55.3318C34.0793 54.9142 33.4022 54.9142 32.9846 55.3318Z" stroke="#03050F" stroke-width="1.5" stroke-miterlimit="10" stroke-linejoin="round"/>
<path d="M44.7617 65.1517H50.9242C50.9242 65.1517 55.0357 65.0472 56.5984 64.5544L64.5754 62.0882L69.8388 59.4583C69.8388 59.4583 72.1351 58.2608 71.1544 55.6365C70.1737 53.0121 67.1659 53.9516 67.1659 53.9516L59.4197 56.2498" stroke="#03050F" stroke-width="1.5" stroke-miterlimit="10" stroke-linejoin="round"/>
<path d="M51.7984 57.5758H58.4252C58.4252 57.5758 61.3585 57.5045 59.1612 53.9726C59.1612 53.9726 57.9596 51.8893 56.3326 51.8024H50.7521C50.7521 51.8024 43.1548 45.6842 35.2305 55.9925" stroke="#03050F" stroke-width="1.5" stroke-miterlimit="10" stroke-linejoin="round"/>
</svg>
