<svg width="30" height="30" viewBox="0 0 30 30" fill="none" xmlns="http://www.w3.org/2000/svg">
<circle cx="15" cy="15" r="15" fill="#C4C6D1"/>
<path d="M22.8406 11.8002C22.8406 11.8002 22.6844 10.6971 22.2031 10.2127C21.5938 9.5752 20.9125 9.57207 20.6 9.53457C18.3625 9.37207 15.0031 9.37207 15.0031 9.37207H14.9969C14.9969 9.37207 11.6375 9.37207 9.4 9.53457C9.0875 9.57207 8.40625 9.5752 7.79688 10.2127C7.31563 10.6971 7.1625 11.8002 7.1625 11.8002C7.1625 11.8002 7 13.0971 7 14.3908V15.6033C7 16.8971 7.15937 18.1939 7.15937 18.1939C7.15937 18.1939 7.31562 19.2971 7.79375 19.7814C8.40313 20.4189 9.20313 20.3971 9.55938 20.4658C10.8406 20.5877 15 20.6252 15 20.6252C15 20.6252 18.3625 20.6189 20.6 20.4596C20.9125 20.4221 21.5938 20.4189 22.2031 19.7814C22.6844 19.2971 22.8406 18.1939 22.8406 18.1939C22.8406 18.1939 23 16.9002 23 15.6033V14.3908C23 13.0971 22.8406 11.8002 22.8406 11.8002ZM13.3469 17.0752V12.5783L17.6687 14.8346L13.3469 17.0752Z" fill="#03050F"/>
</svg>
