<svg width="19" height="19" viewBox="0 0 19 19" fill="none" xmlns="http://www.w3.org/2000/svg">
<g clip-path="url(#clip0_62_3576)">
<path d="M6.77127 1.09195C4.97279 1.71586 3.42178 2.90006 2.34607 4.47061C1.27035 6.04116 0.726633 7.91528 0.794767 9.81769C0.862901 11.7201 1.5393 13.5505 2.72461 15.0401C3.90992 16.5297 5.54167 17.5999 7.38018 18.0935C8.87069 18.4781 10.4323 18.495 11.9308 18.1427C13.2883 17.8378 14.5433 17.1856 15.573 16.2499C16.6447 15.2463 17.4225 13.9697 17.823 12.5571C18.2583 11.021 18.3357 9.40561 18.0494 7.83492H9.67939V11.307H14.5267C14.4299 11.8607 14.2223 12.3892 13.9164 12.8609C13.6105 13.3326 13.2125 13.7377 12.7464 14.052C12.1545 14.4435 11.4873 14.7069 10.7875 14.8254C10.0857 14.9559 9.36588 14.9559 8.66408 14.8254C7.95279 14.6783 7.27991 14.3848 6.6883 13.9634C5.73788 13.2906 5.02425 12.3348 4.64924 11.2324C4.26788 10.1094 4.26788 8.89187 4.64924 7.76883C4.91618 6.98163 5.35747 6.26489 5.94018 5.67211C6.60701 4.98128 7.45124 4.48748 8.38024 4.24487C9.30924 4.00226 10.2871 4.02023 11.2066 4.2968C11.9249 4.51728 12.5817 4.90252 13.1247 5.4218C13.6713 4.87805 14.2169 4.33289 14.7616 3.78633C15.0428 3.49242 15.3494 3.21258 15.6264 2.91164C14.7975 2.14028 13.8246 1.54006 12.7633 1.14539C10.8307 0.443657 8.71608 0.424798 6.77127 1.09195Z" fill="white"/>
<path d="M6.76906 1.09215C8.71371 0.42454 10.8283 0.442902 12.7611 1.14418C13.8226 1.54153 14.7951 2.14464 15.6228 2.91887C15.3416 3.2198 15.0448 3.50105 14.758 3.79355C14.2123 4.33824 13.6672 4.88105 13.1225 5.42199C12.5795 4.90272 11.9226 4.51748 11.2044 4.29699C10.2852 4.01945 9.30737 4.00045 8.37812 4.24207C7.44887 4.48368 6.60413 4.97658 5.93656 5.66668C5.35386 6.25946 4.91257 6.9762 4.64562 7.7634L1.73047 5.50637C2.77392 3.43716 4.58058 1.85437 6.76906 1.09215Z" fill="#E33629"/>
<path d="M0.959527 7.74229C1.11621 6.96575 1.37634 6.21373 1.73296 5.50635L4.64812 7.769C4.26677 8.89204 4.26677 10.1096 4.64812 11.2326C3.67687 11.9826 2.70515 12.7363 1.73296 13.4938C0.840208 11.7168 0.567933 9.69205 0.959527 7.74229Z" fill="#F8BD00"/>
<path d="M9.68031 7.8335H18.0503C18.3366 9.40418 18.2592 11.0196 17.8239 12.5557C17.4235 13.9682 16.6456 15.2449 15.5739 16.2485C14.6331 15.5144 13.6881 14.786 12.7473 14.0519C13.2138 13.7373 13.6119 13.3318 13.9178 12.8596C14.2237 12.3875 14.4311 11.8584 14.5277 11.3041H9.68031C9.67891 10.1482 9.68031 8.99084 9.68031 7.8335Z" fill="#587DBD"/>
<path d="M1.73047 13.4937C2.70266 12.7437 3.67437 11.9899 4.64562 11.2324C5.02139 12.3352 5.73604 13.291 6.6875 13.9634C7.28095 14.3828 7.95528 14.674 8.6675 14.8184C9.3693 14.9489 10.0891 14.9489 10.7909 14.8184C11.4907 14.6999 12.1579 14.4365 12.7498 14.0449C13.6906 14.779 14.6356 15.5074 15.5764 16.2415C14.5469 17.1777 13.2918 17.8304 11.9342 18.1357C10.4357 18.488 8.87411 18.4711 7.38359 18.0865C6.20474 17.7717 5.10361 17.2169 4.14922 16.4566C3.13905 15.6546 2.314 14.6439 1.73047 13.4937Z" fill="#319F43"/>
</g>
<defs>
<clipPath id="clip0_62_3576">
<rect width="18" height="18" fill="white" transform="translate(0.5 0.5)"/>
</clipPath>
</defs>
</svg>
